<svg xmlns="http://www.w3.org/2000/svg" viewBox="0 0 49.44 49.44"><defs><style>.cls-1{fill:#231f20;fill-rule:evenodd;}</style></defs><title>Ресурс 3</title><g id="Слой_2" data-name="Слой 2"><g id="Layer_1" data-name="Layer 1"><path class="cls-1" d="M48.94,19.74A25.18,25.18,0,0,0,47.5,15.1a24.71,24.71,0,0,0-2.28-4.2,24.88,24.88,0,0,0-6.68-6.68A24.57,24.57,0,0,0,29.7.5a25.05,25.05,0,0,0-10,0A24.57,24.57,0,0,0,10.9,4.22,24.88,24.88,0,0,0,4.22,10.9a24.71,24.71,0,0,0-2.28,4.2,24.75,24.75,0,0,0,0,19.24,24.71,24.71,0,0,0,2.28,4.2,24.88,24.88,0,0,0,6.68,6.68,24.57,24.57,0,0,0,8.84,3.72,24.75,24.75,0,0,0,14.6-1.44,24.71,24.71,0,0,0,4.2-2.28,24.88,24.88,0,0,0,6.68-6.68,24.57,24.57,0,0,0,3.72-8.84,25.05,25.05,0,0,0,0-10Zm-3.12,4.77a48.8,48.8,0,0,0-14.7-.69l-.45-1.09c-.44-1-.92-2.06-1.41-3.06C37.6,16.26,41,11.37,41,11.31A21,21,0,0,1,45.82,24.51ZM38.66,8.88c0,.08-3.06,4.66-11,7.64A109.12,109.12,0,0,0,19.75,4.2a21.33,21.33,0,0,1,5-.59A21,21,0,0,1,38.66,8.88Zm-19-4.66H19.6ZM15.71,5.63a125.49,125.49,0,0,1,7.84,12.16A78.25,78.25,0,0,1,4.06,20.37,21.15,21.15,0,0,1,15.71,5.63ZM3.61,24.72c0-.23,0-.45,0-.67A77.06,77.06,0,0,0,25.3,21c.61,1.19,1.18,2.39,1.71,3.59l-.83.25C14.79,28.57,9,38.82,9,38.82H9A21.05,21.05,0,0,1,3.61,24.72ZM24.72,45.83A21,21,0,0,1,11.27,41c.28.23.48.37.48.37s4-8.82,16.56-13.18l.14-.05a87.59,87.59,0,0,1,4.51,16A21,21,0,0,1,24.72,45.83Zm11.8-3.6a91.69,91.69,0,0,0-4.11-15.08,30.62,30.62,0,0,1,13.15.92A21.12,21.12,0,0,1,36.52,42.23Z"/></g></g></svg>